HIERARCHY
ROOT pelvis
{
  OFFSET 0 100 0
  CHANNELS 6 Xposition Yposition Zposition Zrotation Xrotation Yrotation
  JOINT pelvis_right_femur
  {
    OFFSET -10.78128 -3.44521 -0.5502486
    CHANNELS 3 Zrotation Xrotation Yrotation
    JOINT right_femur_tibia
    {
      OFFSET -0.8047443 -44.0398 -0.1307829
      CHANNELS 3 Zrotation Xrotation Yrotation
      JOINT right_tibia_foot
      {
        OFFSET 3.006224 -47.83518 -5
        CHANNELS 3 Zrotation Xrotation Yrotation
        End Site
        {
          OFFSET 0 -5 15
        }
      }
    }
  }
  JOINT pelvis_left_femur
  {
    OFFSET 10.78128 -3.44521 -0.5502486
    CHANNELS 3 Zrotation Xrotation Yrotation
    JOINT left_femur_tibia
    {
      OFFSET 0.8047443 -44.0398 -0.1307829
      CHANNELS 3 Zrotation Xrotation Yrotation
      JOINT left_tibia_foot
      {
        OFFSET -4.370144 -48.10324 -4.275266
        CHANNELS 3 Zrotation Xrotation Yrotation
        End Site
        {
          OFFSET 0 -5 15
        }
      }
    }
  }
  JOINT pelvis_spine1
  {
    OFFSET 0 6.468898 -3.129235
    CHANNELS 3 Zrotation Xrotation Yrotation
    JOINT spine1
    {
      OFFSET 0 23.15396 4.99043
      CHANNELS 3 Zrotation Xrotation Yrotation
      JOINT spine2
      {
        OFFSET 0 20.79997 -5.064912
        CHANNELS 3 Zrotation Xrotation Yrotation
        JOINT neck
        {
          OFFSET 0 14.38658 9.616178
          CHANNELS 3 Zrotation Xrotation Yrotation
          End Site
          {
            OFFSET 0 20 0
          }
        }
      }
      JOINT right_manubrium
      {
        OFFSET -5.722621 16.35077 3.967754
        CHANNELS 3 Zrotation Xrotation Yrotation
        JOINT right_clavicle
        {
          OFFSET -13.16364 1.694482 -4.693211
          CHANNELS 3 Zrotation Xrotation Yrotation
          JOINT right_humerus
          {
            OFFSET -28.5034 -0.3100689 -2.792744
            CHANNELS 3 Zrotation Xrotation Yrotation
            JOINT right_radius
            {
              OFFSET -25.15693 0.02248979 -1.271978
              CHANNELS 3 Zrotation Xrotation Yrotation
              End Site
              {
                OFFSET -15 0 0
              }
            }
          }
        }
      }
      JOINT left_manubrium
      {
        OFFSET 5.722621 16.35077 3.967754
        CHANNELS 3 Zrotation Xrotation Yrotation
        JOINT left_clavicle
        {
          OFFSET 13.16364 1.694482 -4.693211
          CHANNELS 3 Zrotation Xrotation Yrotation
          JOINT left_humerus
          {
            OFFSET 29.39168 -1.063119 -2.237045
            CHANNELS 3 Zrotation Xrotation Yrotation
            JOINT left_radius
            {
              OFFSET 24.59957 -0.9528479 0.9047498
              CHANNELS 3 Zrotation Xrotation Yrotation
              End Site
              {
                OFFSET 15 -0 -0
              }
            }
          }
        }
      }
    }
  }
}
MOTION
Frames: 19
Frame Time: 0.0416666666667
34.66959 100.7456 282.13 2.155027 -7.471999 0.6276112 -0.1618798 18.43341 7.472806 -0 36.65342 -0 7.303536 -7.746564 0.3640167 -2.753428 -20.94497 -5.618571 -0 23.70606 -0 -5.652691 -7.633965 17.17942 -1.11145 -0.05666994 9.050899 -3.091187 9.266 -2.1701 2.402467 20.65627 3.981066 1.216571 -18.49174 6.404758 -1.266483 -22.22433 10.40961 82.41019 16.00344 -6.317232 -0 0 29.60495 -23.51913 10.19878 13.36069 5.580567 -12.55221 -3.004735 -95.44675 22.86842 28.26926 0 0 -8.117293 -4.008256 5.540469 19.70922
36.23791 101.5693 289.7851 2.682508 -8.524079 1.696474 -0.8541363 15.31776 6.376659 -0 45.30937 -0 6.652376 -6.272678 -1.52711 -4.386811 -16.19249 -6.490931 -0 24.67489 -0 -4.626037 -8.993003 17.03823 -1.473845 -0.1197056 8.410147 -3.116719 9.51714 -2.324668 2.416622 20.98669 3.961954 1.06843 -18.26362 6.55555 -0.706292 -21.08621 10.13817 83.36736 16.03958 -7.626685 -0 0 27.77651 -23.04958 10.25837 12.682 5.286459 -12.69291 -3.020571 -94.52575 23.37833 26.81897 0 0 -8.251783 -3.763939 5.903888 19.35786
37.47238 102.6834 296.5703 2.714216 -9.345503 2.648086 -1.140982 10.47345 5.063694 -0 53.10317 -0 6.403506 -5.876169 -3.991043 -5.374691 -10.60647 -6.968472 -0 24.24082 -0 -3.559925 -10.68251 16.98151 -1.398916 0.4280919 7.346273 -3.012746 9.607127 -2.621 2.295795 21.56981 4.052746 0.8468288 -17.78607 6.751613 -0.01996693 -20.38724 10.1381 84.31189 16.32439 -8.728956 -0 0 25.68629 -22.37944 10.40035 11.87921 4.967057 -13.52561 -3.224488 -92.93117 23.99353 24.17095 0 0 -9.097696 -3.222928 6.355619 18.68971
38.58894 103.9975 302.4332 2.613177 -9.687214 3.314725 -0.8076383 5.757787 4.284319 -0 57.87472 -0 6.15035 -4.936029 -5.477594 -5.783038 -5.581132 -7.455861 -0 22.87232 -0 -2.838258 -11.92619 16.77498 -1.38772 0.6622414 6.147085 -2.863599 9.419699 -3.022794 2.118899 22.00839 4.31669 0.5892288 -17.49338 7.137377 0.5564946 -19.45168 10.22864 85.64605 16.78345 -10.0227 -0 0 23.61529 -21.56225 10.57763 11.08673 4.901318 -14.40725 -3.538218 -90.93634 24.56403 20.91886 0 0 -10.37286 -2.501553 6.787208 17.77522
39.72556 105.5889 308.5499 2.486822 -10.80217 4.203669 0.1217498 -1.755682 3.642024 -0 57.60732 -0 5.460158 -6.106684 -6.314304 -5.767098 -0.1384861 -8.082103 -0 21.31613 -0 -2.471225 -12.66931 16.32147 -1.257968 1.305614 4.731294 -2.48328 9.567639 -3.831153 2.069319 22.68988 4.586048 0.4246105 -16.9775 7.631349 0.7369595 -18.44501 9.946579 86.93866 17.20902 -11.61992 -0 0 21.77906 -20.80829 10.74007 10.40852 4.902332 -15.2741 -3.838328 -88.97614 24.95903 17.29229 0 0 -12.08372 -1.737471 7.191179 16.66567
40.73172 106.3492 313.9601 2.230618 -10.35511 5.751389 0.6363246 -7.725604 3.252767 -0 53.64768 -0 4.763726 -6.176716 -7.306525 -5.509018 4.804366 -8.558251 -0 18.23884 -0 -2.108594 -13.73352 15.54721 -1.176181 1.269313 3.299023 -2.01473 9.054987 -5.035748 2.223081 23.25843 4.735336 0.3918956 -16.40123 8.111561 0.2722605 -17.75511 9.440858 87.87837 17.57324 -13.04535 -0 0 20.47817 -20.17775 10.81524 9.906311 5.261404 -16.29971 -4.205146 -86.88004 25.26582 13.23677 0 0 -14.30822 -0.9541928 7.626482 15.36226
41.69248 106.4586 319.577 2.248031 -9.957278 7.883634 0.7097492 -13.41435 3.265205 -0 46.50075 -0 3.826783 -6.084953 -8.071234 -5.079991 9.188517 -8.965197 -0 15.73666 -0 -1.789793 -15.02934 14.63245 -1.340604 1.152417 1.949129 -1.406513 8.823306 -6.495136 2.501685 23.58001 4.769995 0.429613 -16.06769 8.532714 -0.3086876 -16.28708 8.664191 88.96059 17.78661 -15.29246 -0 0 18.42591 -19.32773 10.78194 8.944272 5.743457 -17.29546 -4.567374 -84.80494 25.4768 9.200793 0 0 -16.76844 -0.1605925 8.133107 13.90587
42.53252 105.8415 325.6328 2.058483 -9.127998 9.025854 0.0611123 -17.37386 2.901045 -0 36.71463 -0 2.610758 -6.370549 -8.338049 -4.548428 12.96858 -8.997579 -0 14.02728 -0 -1.48538 -16.58199 13.84275 -1.714606 0.493702 1.123542 -0.8026909 8.240713 -7.630091 2.882052 23.80916 4.684554 0.5299373 -15.96379 8.877595 -0.7866707 -14.9754 8.005355 89.83175 17.96783 -17.37896 -0 0 16.29146 -18.49897 10.70276 7.934424 6.402103 -18.29252 -4.798215 -82.65465 25.58463 5.409144 0 0 -19.29938 0.6860087 8.7323 12.32575
43.43304 104.5935 331.2979 2.095041 -8.106799 9.767429 -0.8904351 -21.11157 1.613472 -0 25.94952 -0 1.108168 -6.942787 -8.646128 -4.457328 15.93237 -8.365292 -0 13.19117 -0 -1.251634 -18.14647 13.1864 -1.938444 0.3354858 0.7828541 -0.4154288 7.475552 -8.195591 3.168396 23.7741 4.573095 0.5841221 -16.16379 9.093123 -1.049609 -13.92883 7.682587 90.29347 18.2412 -19.17867 -0 0 13.85278 -17.68616 10.64564 6.929165 6.912343 -19.49555 -4.812084 -80.74773 25.55156 1.902501 0 0 -21.72866 1.598509 9.367723 10.70948
44.09197 103.2501 336.1974 2.507577 -6.945429 9.863501 -0.7443744 -23.23595 -0.4010503 -0 16.68945 -0 -0.4605008 -7.920571 -8.702302 -4.977203 17.59285 -7.208698 -0 13.41204 -0 -1.213873 -19.31616 12.85801 -2.34944 0.7755078 0.9938619 -0.2652915 6.522729 -8.081737 3.307349 23.68754 4.455162 0.564841 -16.55533 9.163052 -0.864924 -13.29652 7.648377 90.70396 18.57968 -20.54736 -0 0 11.23356 -16.73036 10.62703 5.782999 7.271921 -20.78304 -4.617458 -78.86168 25.36523 -1.453571 0 0 -23.70206 2.528698 9.981836 9.163106
44.61723 102.1828 342.0057 2.213325 -6.293142 9.687146 -0.1127072 -24.32944 -1.347506 -0 11.92075 -0 -1.941839 -8.696887 -8.272187 -4.676185 19.20228 -6.527946 -0 15.79253 -0 -1.400139 -19.51409 12.74006 -2.209945 1.030677 1.12981 0.01544017 5.759076 -7.756528 3.381153 23.75627 4.30006 0.531566 -16.99371 9.118139 -0.3517559 -12.66546 7.636966 91.11085 18.92085 -21.71327 -0 0 8.58687 -15.59607 10.65351 4.563279 7.413473 -21.5995 -4.120656 -77.84035 25.22576 -3.45223 0 0 -24.77321 3.342276 10.54286 7.8717
45.18671 101.3463 348.8945 1.903424 -6.057331 10.24908 1.36921 -23.27779 -0.8329589 -0 12.9953 -0 -3.374899 -8.808336 -8.172183 -3.970603 20.43852 -6.315795 -0 20.56244 -0 -1.849358 -18.34124 12.96438 -1.852131 0.4364651 0.9703074 0.1083652 5.348134 -7.491074 3.512982 24.20747 4.057589 0.576186 -17.23488 8.984722 0.02302815 -11.89502 7.372315 91.4883 19.1907 -22.65254 -0 0 6.430005 -14.45808 10.68654 3.489381 7.336515 -21.82122 -3.363249 -77.93395 25.31335 -4.00974 0 0 -24.88237 3.943168 11.06721 6.889626
45.8019 101.0574 356.6026 1.590231 -6.451908 10.98755 2.761589 -21.30684 0.3974284 -0 16.69356 -0 -4.58751 -8.046561 -7.874533 -3.491936 21.30376 -6.167714 -0 28.50032 -0 -2.439307 -15.61577 13.77878 -1.40339 -0.5005593 0.7321528 0.1909143 5.299468 -7.367184 3.592087 24.79308 3.76131 0.6308918 -17.36873 8.701966 0.3703748 -10.97021 6.841813 91.86763 19.28293 -23.33783 -0 0 5.12071 -13.64398 10.63325 2.853125 7.194289 -21.41048 -2.490674 -79.08167 25.63981 -3.159403 0 0 -23.87376 4.255387 11.56885 6.288462
46.31459 101.4102 363.9156 1.02601 -7.53108 10.5922 3.365862 -18.04791 1.878465 -0 21.156 -0 -5.963719 -8.105986 -7.412628 -1.489891 18.97353 -7.564118 -0 36.06559 -0 -2.698125 -13.44442 15.00493 -0.69696 -0.418776 0.787078 0.3775536 5.45024 -7.186411 3.684187 25.38442 3.382077 0.7276442 -17.56004 8.286052 0.6792054 -10.76617 6.724822 91.44331 19.50129 -22.95799 -0 0 4.936732 -13.04004 10.5254 2.489813 6.946602 -20.64252 -1.929593 -80.69057 26.01125 -1.369934 0 0 -21.90519 4.303184 12.04766 6.070678
46.9278 102.1511 370.7249 0.9604458 -9.021697 9.84795 4.436114 -13.64485 2.312621 -0 22.97696 -0 -7.168397 -9.777854 -7.254689 -1.852672 14.22625 -7.453462 -0 44.43205 -0 -3.046021 -10.87949 16.33827 -0.2627072 0.5110469 1.25951 0.4519664 5.582149 -6.823827 3.681413 25.66315 3.356469 0.7738336 -17.98794 8.246634 1.021158 -10.99164 6.920808 90.36506 19.73312 -21.78033 -0 0 5.717485 -12.92384 10.31381 2.56574 6.307313 -19.93492 -1.965395 -82.62207 26.3717 0.8954094 0 0 -19.18579 4.076552 12.51811 6.195833
47.57055 103.0487 376.8937 1.542943 -10.56051 9.560693 4.915123 -9.129352 1.715954 -0 22.74328 -0 -7.793617 -11.80095 -7.861704 -2.592681 8.574383 -7.139905 -0 51.30624 -0 -3.586587 -8.669768 17.73809 -0.3124383 1.694631 2.070091 0.5173274 6.237351 -6.198872 3.580204 26.01544 3.224454 0.7859751 -18.15641 7.955254 1.630938 -11.31942 7.443274 89.12504 19.91239 -20.15655 -0 0 6.879688 -12.99275 10.06173 2.791094 5.547162 -19.24454 -2.35539 -84.79939 26.69863 3.174403 0 0 -16.16066 3.619853 12.9902 6.5463
48.17416 104.5133 382.9488 2.3825 -10.77138 9.196014 4.261346 -3.81672 1.183033 -0 20.8783 -0 -8.161411 -13.32267 -7.90299 -3.397387 4.161102 -6.713261 -0 58.38231 -0 -4.159283 -6.455395 19.1725 -0.8268365 1.752543 3.133388 0.238279 6.402567 -5.263833 3.544521 26.68744 2.915496 0.8535364 -18.09625 7.4735 1.977334 -12.30964 8.020361 87.45666 20.15321 -17.76045 -0 0 8.565001 -13.06793 9.831769 2.966234 5.059951 -18.42061 -2.416867 -87.18082 26.7648 6.062512 0 0 -12.98158 3.134608 13.40234 7.001606
48.78927 105.8646 388.6663 3.232347 -10.96089 8.738924 3.411513 1.609457 0.6439667 -0 18.11156 -0 -8.372301 -14.45784 -7.468326 -3.883026 -2.191496 -6.583716 -0 58.04831 -0 -4.303009 -5.909337 20.04942 -1.385351 2.003435 4.180587 -0.2111951 6.530614 -4.017477 3.490608 27.36443 2.566313 0.9082335 -17.93112 6.919017 2.054424 -13.42505 8.678673 86.1577 20.25921 -15.09434 -0 0 10.35383 -13.39856 9.529743 3.23171 5.102808 -17.72554 -2.202104 -89.394 26.49648 9.084591 0 0 -10.10103 2.73366 13.74108 7.400948
49.32057 106.5951 394.0638 3.6015 -10.59762 8.055486 2.881916 6.40254 0.08227516 -0 14.98872 -0 -8.600186 -15.4124 -6.749406 -3.88111 -8.095138 -6.565446 -0 51.91299 -0 -4.058636 -6.416522 20.61453 -1.638503 2.13761 4.8975 -0.5980674 6.570298 -2.844359 3.253026 27.4575 2.461329 0.9004695 -18.0851 6.472243 1.860365 -14.11681 9.186152 85.15969 20.24297 -12.87043 -0 0 11.6468 -13.92736 9.12741 3.420039 5.524238 -16.92859 -1.889995 -91.35752 25.9343 12.25262 0 0 -7.530129 2.41414 14.02344 7.692842
